<svg xmlns="http://www.w3.org/2000/svg" viewBox="0 0 121 20" enable-background="new 0 0 121 20"><path d="m43.2 8c-.6-.4-1.1-.4-1.3-.1l-.9 1v-1.2h-2.1v.2c.5 0 .7.1.7.6v2.7c0 .5-.2.7-.7.7v.2h2.8v-.1c-.5 0-.7-.2-.7-.7v-1.5c0-.6.4-.8.8-.8.4 0 .8.3 1.1.7l.3-1.7m-6.5-.2c-1.4 0-2.6 1-2.6 2.3 0 1.3 1.1 2.3 2.6 2.3 1.4 0 2.6-1 2.6-2.3 0-1.3-1.2-2.3-2.6-2.3m0 4.1c-.7 0-1.3-.9-1.3-1.9 0-1 .6-1.9 1.3-1.9.7 0 1.3.8 1.3 1.9-.1 1-.6 1.9-1.3 1.9m18.1-4.1c-1.4 0-2.6 1-2.6 2.3 0 1.3 1.1 2.3 2.6 2.3 1.4 0 2.6-1 2.6-2.3 0-1.3-1.1-2.3-2.6-2.3m0 4.1c-.7 0-1.3-.9-1.3-1.9 0-1 .6-1.9 1.3-1.9.7 0 1.3.8 1.3 1.9 0 1-.6 1.9-1.3 1.9m-21-.6v-5.1h-2.1v.2c.5 0 .7.1.7.6v4.2c0 .6-.1.8-.7.8v.2h2.8v-.2c-.6 0-.7-.2-.7-.7m13-.1v-2.2c0-.7-.9-1.2-1.7-1.2-.9 0-1.9.5-2 1.6.5-.7 1.2-1 1.9-.7.5.2.6.8.2.9l-1.5.4c-.6.2-.9.6-.9 1.1 0 .5.4 1.1 1.2 1.1.5 0 1-.2 1.4-.7.2.5.5.7.9.7.3 0 .8-.3.9-.7-.2.3-.4.1-.4-.3m-2 .5c-.5 0-.7-.4-.7-.8 0-.3.1-.5.3-.6l1-.5v1.1c.1.5-.1.8-.6.8m7-.4v-5.1h-2.1v.2c.6 0 .7 0 .7.6v1.3c-.3-.3-.8-.5-1.3-.5-1.3 0-2.1 1.2-2.1 2.2 0 1.2.6 2.2 2.4 2.2h2.9v-.2c-.3-.1-.5-.4-.5-.7m-1.3.1c0 .2-.2.5-.5.5-.9 0-1.5-1-1.5-1.9 0-.7.3-1.7 1.1-1.7.5 0 .9.2.9.8v2.3m-21-3.6c-1.4 0-2.6 1-2.6 2.3 0 .2 0 .5.1.7-.7.7-1.4.9-2 .9-2.6-.2-2.6-5 .1-5 1.5 0 1.7 1.2 1.8 1.8l.2-.1v-2.1h-.1c0 .1-.1.3-.3.3-.1 0-1.1-.4-1.9-.3-1 0-3.2.6-3.2 3 0 2.4 1.9 3.1 3.2 3.1 1.1 0 1.9-.7 2.5-1.3.4.7 1.3 1.3 2.3 1.3 1.4 0 2.6-1 2.6-2.3-.1-1.3-1.3-2.3-2.7-2.3m0 4.1c-.7 0-1.3-.9-1.3-1.9 0-1 .6-1.9 1.3-1.9.7 0 1.3.8 1.3 1.9 0 1-.6 1.9-1.3 1.9m81.9-.6v-3.6h-2.1v.2c.5 0 .6.1.7.2.1.1.1.5.1.8v2.3c0 .3 0 .5-.2.7-.1.1-.3.1-.5.2v.2h2.8v-.3c-.6 0-.8-.1-.8-.7m.1-5.5c0-1-1.6-1-1.6 0 .1 1 1.6 1 1.6 0m-6.8 2.1l-.9 1v-1.2h-2.1v.2c.5 0 .7.1.7.6v2.7c0 .5-.2.7-.7.7v.2h2.8v-.1c-.5 0-.7-.2-.7-.7v-1.5c0-.6.4-.8.8-.8.4 0 .8.3 1.1.7l.3-1.7c-.6-.5-1.1-.4-1.3-.1m-2.8 2.7c-.7 1-1.2 1-1.8 1-.7 0-1.4-1-1.3-1.9h3.1c-.1-1.1-.7-2-2-1.9-1.5 0-2.6.9-2.5 2.4 0 1.5 1.5 2.1 2.5 2.1 1.3 0 2-.8 2.3-1.5l-.3-.2m-2.2-2.5c.4 0 .8.5.7 1.1h-1.6c.1-.6.5-1.1.9-1.1m-7.1-2.3c0-1-1.6-1-1.6 0 .1 1 1.6 1 1.6 0m5.4 2.1v-.1h-1.8v.2c.4 0 .5.2.5.5 0 .2-.1.4-.2.6l-.8 1.6-1-2c0-.1-.1-.2-.1-.3 0-.2.1-.3.4-.4v-.2h-2.6-2.1v.2c.5 0 .6.1.7.2.1.1.1.5.1.8v2.3c0 .3 0 .5-.2.7.1-.1 0 0-.2 0-.3 0-.3-.1-.4-.2-.1-.1-.2-.4-.2-.7v-1.8c0-.5-.1-.9-.4-1.1-.3-.3-.6-.4-1.1-.4-.7 0-1.2.3-1.6 1v-1h-.2-1.8v.2c.3 0 .4 0 .6.1.1.1.2.2.1.8v2.4c0 .2 0 .5-.2.6-.1.1-.3.1-.4.1-.2 0-.3-.1-.4-.2-.1-.1-.2-.3-.1-.7v-5h-2v.2c.2 0 .4 0 .5.1.1.1.1.2.1.7v3.9c-.5.6-1 .8-1.4.8-.3 0-.6-.1-.8-.3-.2-.2-.3-.5-.3-.9v-4.4h-2v.2c.2 0 .5 0 .6.2.1.2.1.4.1.7v3.1c0 .6.2 1.1.5 1.4.4.4.9.5 1.5.5.4 0 .7-.1 1-.2.3-.1.6-.4.9-.8v.8h1.8 2.6v-.1c-.2 0-.3-.1-.4-.1-.3-.2-.3-.4-.3-.7v-2c.3-.5.6-.8 1.1-.8.2 0 .4.1.6.3.1.2.2.4.2.8v1.8c0 .2 0 .5-.2.6-.2.1-.3.1-.5.1v.2h2.3 2.8v-.2c-.5 0-.7-.1-.7-.7v-3.3c.1 0 .3 0 .4.2.2.1.3.4.5.7l1.6 3.3h.2l1.7-3.3c.2-.3.3-.6.5-.7.1-.1.3-.2.5-.3m11.2 2c-.2-.2-.6-.5-1.3-.7-.4-.1-.7-.3-.8-.4-.1-.1-.2-.2-.2-.3s.1-.2.2-.3c.1-.1.3-.1.5-.1.3 0 .6.1.8.3.2.2.4.4.6.7h.2v-1c-.6-.3-1.7-.3-1.7-.3-.5 0-.8.1-1.1.4-.2.2-.4.5-.4.8 0 .3.1.6.3.8.2.2.6.4 1.2.6.5.2.8.3.9.5.1.1.2.3.2.5 0 .2-.1.3-.2.4-.2.1-.3.2-.6.2-.6 0-1.2-.4-1.6-1.3h-.2v1.3c1 .3 1.9.2 1.9.2.4 0 .8-.2 1.1-.4.3-.3.5-.6.5-1 0-.3-.1-.6-.3-.9m-33.4 1.7c-.7 0-1.4-1-1.3-1.9h3.1c-.1-1.1-.7-2-2-1.9-1.5 0-2.6.9-2.5 2.4 0 .4.1.7.3 1-.6.6-1.2.4-1.2-.5v-2.5h1.3v-.4h-1.3v-2l-.2-.1c-.2 1.3-1 1.8-1.9 2.1v.4h.6v2.7c0 .7.4 1.1.8 1.3.8.3 1.6 0 2-.8.5.6 1.4.9 2 .9 1.3 0 2-.8 2.3-1.5l-.1-.1c-.8.9-1.3 1-1.9.9m-.5-3.5c.4 0 .8.5.7 1.1h-1.6c.1-.6.5-1.1.9-1.1m-5.4 3.1v-2.2c0-.7-.9-1.3-1.7-1.2-.9 0-1.9.5-1.9 1.6.5-.7 1.2-1 1.9-.7.5.2.6.8.2.9l-1.4.4c-.6.2-.9.6-.9 1.1 0 .1 0 .1 0 .2-.8.3-1.1-.1-1.1-.8v-2.4h1.3v-.4h-1.3v-2h-.2c-.2 1.2-.6 1.6-1.6 2v-2c-1.4-.6-2.8-.3-3.3-.1-1.3.6-1.7 2.2-.5 3.2l1.8 1.5c1 .8.5 2.3-.4 2.5-.9.2-1.7-.4-2.1-.9l-.3.1c.5.9 1.5 1.5 2.5 1.5.9 0 2.1-.6 2.4-1.5.3-1.1-.2-2.2-.7-2.6l-2.1-1.6c-.3-.3-.4-.5-.4-.8 0-.8.8-1.1 1.3-1.1 1 0 1.6 1.1 1.6 2.4h.5v2.5c0 .9.4 1.5 1.2 1.6.4 0 1.1-.1 1.5-.6.2.3.5.6 1 .6.5 0 1-.2 1.4-.7.2.5.5.7.9.7.3 0 .8-.3.9-.7-.4.1-.5-.1-.5-.5m-2 .5c-.5 0-.7-.4-.7-.8 0-.3.1-.5.3-.6l1-.5v1.1c.1.5-.1.8-.6.8m50.1-3.9v.2c.4.1.6.3.6.6 0 .2-.1.5-.3.9l-.7 1.5-1-2c-.1-.3-.2-.4-.2-.6 0-.2.2-.3.5-.3v-.3h-2-.5-.4-.4v-2l-.2-.1c-.2 1.3-.9 1.9-1.8 2.1v.4h.5v2.7c0 .7.4 1.1.8 1.3.9.4 1.6 0 2.1-.9 0 0-.2-.2-.2-.2-.6.6-1.3.5-1.3-.4v-2.5c0 0 1.2 0 1.5.8l1.8 3.6c-.2.5-.4.8-.7 1-.3.3-.7.5-1.1.5-.2 0-.4 0-.6-.1l-.3 1.4c.1 0 .3 0 .4 0 .5 0 .9-.1 1.2-.3.3-.2.6-.6.8-1.2l2.2-4.7c.2-.4.4-.7.5-.9.1-.1.4-.2.7-.3v-.2h-1.9" fill="#fff"/><circle cx="9.7" cy="9.7" r="9.7" fill="#cbc46e"/><circle cx="9.7" cy="9.7" r="9.3" fill="#004c23"/><g fill="#fff"><path d="m15.8 9.1c0-.4-.4-.5-.6-.6-.8-.3-1.2.1-1.4.1.3-.3.2-.8-.1-.8-.6-.1-.5.6-.3.9.1.2.2.5.5.5.4 0 .3-.3.9-.4 0 0 .7.1.7.3 0 .3-.4.4-.6.5-.3.1-.7-.1-1 .3-.1.1-.2.2-.1.4 0 .1 0 .1.4.1-.2.3-.3.7-.3 1 0 .9-.3 1.7-.2 2 .5-.6.5-1.4.5-2 0-.3.2-.7.3-1 .2-.3.6-.3.8-.5.2-.2.6-.5.5-.8"/><path d="m8.2 11.8c.3-.4.5-1.3.4-1.6-.3-.1-.6-.3-.8-.5-.1-.3-.2-.6-.6-.7-.2-.1-.4 0-.6.1-.3.1-.3.5-.4.8 0 .6.1 1.6.4 2.2.2.4.5 1.2 1 1.8-.1-1 .5-1.8.6-2.1m-.8-1.3c-.1-.2-.4-.2-.6-.3-.2-.2-.2-.5 0-.7.3-.3 1.1.6.9 1.3-.1 0-.1-.1-.3-.3"/><path d="m10.6 14.7c-.3 0-.7.1-.9.1-.3 0-.6-.1-.9-.1-.1 0-.1 0-.1 0-.2.4.9.6 1 .6.1.1 1.2-.1.9-.6"/><path d="m5.8 7.8c-.4.1-.4.6-.2.9-.2-.1-.6-.4-1.4-.1-.2.1-.6.2-.6.5 0 .3.3.6.6.7.2.2.6.3.8.5.2.3.3.6.3 1 .1.7.1 1.5.5 2 .1-.3-.2-1.1-.2-2 0-.4-.1-.8-.3-1 .4 0 .4 0 .4-.1 0-.1 0-.3-.1-.4-.3-.3-.7-.2-1-.3-.2 0-.6-.1-.6-.4 0-.2.7-.3.7-.3.6 0 .5.4.9.4.3 0 .4-.3.5-.5.1-.3.3-1-.3-.9"/><path d="m9.7 11.3c0 0 0 0 0 0-.3 0-.5.3-.8.6-.5.5-1.5 1.8-.8 2.5.3.3.7.5 1.3.3.1-.1.1-.4 0-.5-.3-.4-.7-.2-.8-.4-.1-.2 0-.3 0-.4.1-.1.3-.1.4-.1.2.1.4.2.6.3 0 0 0 0 0 0 .1-.2.3-.3.6-.3.1 0 .3-.1.4.1.1.1.1.2 0 .4-.1.2-.5 0-.8.4-.1.1-.2.4 0 .5.6.2 1 0 1.3-.3.7-.6-.3-1.9-.8-2.5-.1-.4-.3-.6-.6-.6"/><path d="m12.7 9.1c-.2-.1-.4-.2-.6-.1-.3.1-.4.4-.6.6-.2.3-.5.5-.7.6-.2.4.1 1.2.4 1.6.1.3.7 1 .6 2.1.5-.7.8-1.4 1-1.8.3-.6.4-1.5.4-2.2-.1-.3-.2-.7-.5-.8m-.2 1.1c-.1.1-.5 0-.6.3-.2.3-.2.3-.3.3-.2-.7.6-1.5.9-1.3.3.2.3.5 0 .7"/><path d="m9.7.9c-4.8 0-8.8 3.9-8.8 8.8 0 4.8 3.9 8.8 8.8 8.8 4.8 0 8.8-3.9 8.8-8.8-.1-4.9-4-8.8-8.8-8.8m6.5 14c-.3.4-.6.7-1 .9-.3.1-.5.2-.8 0-.2-.1-.3-.3-.4-.5 0-.4.1-.8.3-1 .2-.4.8-1.1 1.4-1.5.9-.7 1.5-.8 1.3-1-.2-.1-1 .4-1.2.4-.9.5-2.2 1.9-2.4 2.9-.1.7.6 1.2 1.2 1.2-2 1.6-4.2 1.7-4.9 1.7-.7 0-2.9-.1-4.9-1.7.6 0 1.3-.5 1.2-1.2-.2-1-1.4-2.4-2.4-2.9-.2-.1-1-.5-1.2-.4-.2.2.4.3 1.3 1 .6.5 1.2 1.1 1.4 1.5.2.3.4.7.3 1 0 .2-.2.5-.4.5-.3.1-.6.1-.8 0-.4-.2-.8-.5-1-.9-.6-.7-1.1-1.6-1.4-2.5.2.5 1.7 2.6 2.3 2.7.7 0-.7-1.8-1.6-2.5-.2-.2-.5-.4-.5-.7 0-.2.1-.4.3-.4.4 0 1.3.5 1.3.5-1.6-3.1 1-4.6-.1-5.3-.3-.2-1.1 0-1.5.1 3.9-2.3 4.6 0 5.8 1.1.2.2 1 0 1.2-.2.1-.3.5-1.2 0-1.8-.6-.8-3.2-3.2-5.7-1.4.6-.8 1.5-1.6 2.6-2.1 1.2-.6 2.6-1 3.8-.9 2.4-.1 5.1 1.2 6.4 3.1-2.5-1.8-5.1.6-5.8 1.4-.5.6-.1 1.5.2 1.7.2.2 1 .4 1.2.2 1.2-1.1 1.9-3.4 5.8-1.1-.4-.1-1.2-.3-1.6-.1-1.1.7 1.5 2.2-.2 5.1 0 0 1-.5 1.3-.5.2 0 .4.2.3.4-.1.3-.3.6-.5.7-.9.8-2.3 2.6-1.6 2.5.7 0 2.1-2.2 2.4-2.7-.3 1.1-.8 1.9-1.4 2.7m.2-10.1"/></g></svg>